<svg width="328" height="451" viewBox="0 0 328 451" fill="none" xmlns="http://www.w3.org/2000/svg">
  <mask id="mask0_2173_355" style="mask-type:alpha" maskUnits="userSpaceOnUse" x="0" y="0" width="328" height="451">
    <g clip-path="url(#clip0_2173_355)">
      <path
        d="M20.1153 1.67189L17.2562 2.88416L14.5609 4.39388L12.0457 6.183L9.72699 8.22448L7.61789 10.5093L5.74131 13.0105L4.10381 15.7099L2.73159 18.5897L1.63446 21.6316L0.828813 24.8133L0.606113 27.6434L0.419437 33.9301L0.265512 43.8356L0.144337 57.5312L0.0559125 75.179L-0.0063125 96.9414L-0.0357875 122.99L-0.0390625 153.481L-0.0161375 188.588L0.0297125 228.476L0.331012 421.25L0.350662 422.322L0.416162 423.386L0.520963 424.45L0.671613 425.5L0.861563 426.545L1.09409 427.582L1.36591 428.609L1.68031 429.619L2.03401 430.619L2.42701 431.602L3.35711 433.607L4.41166 435.531L5.58084 437.37L6.86136 439.11L8.24996 440.75L9.74009 442.282L11.3285 443.706L13.0085 445.009L14.7738 446.189L16.6176 447.244L17.754 447.807L18.9101 448.312L20.0825 448.763L21.2746 449.155L22.4798 449.488L23.6949 449.763L24.9263 449.979L26.1642 450.133L27.4087 450.227L28.6598 450.263L120.743 450.565L139.689 450.61L156.735 450.628L171.885 450.615L185.162 450.57L196.572 450.498L206.135 450.394L213.861 450.263L219.766 450.106L223.863 449.916L226.165 449.705L228.995 449.15L231.72 448.452L234.336 447.604L236.838 446.622L239.216 445.5L241.469 444.247L243.582 442.855L245.556 441.336L247.381 439.691L249.048 437.92L250.564 436.171L251.854 434.562L252.974 432.99L253.977 431.327L254.92 429.456L255.853 427.271L256.839 424.643L257.926 421.457L259.177 417.604L260.638 412.958L262.737 406.608L264.784 401.232L266.9 396.707L269.192 392.912L271.783 389.74L274.776 387.058L278.293 384.751L282.446 382.7L287.349 380.79L293.116 378.892L299.525 376.756L305.066 374.557L309.815 372.223L313.834 369.681L317.197 366.864L319.974 363.71L322.231 360.145L324.039 356.107L325.47 351.519L326.59 346.323L326.812 343.678L326.999 338.405L327.153 330.334L327.274 319.306L327.366 305.155L327.425 287.719L327.458 266.84L327.461 242.347L327.438 214.077L327.389 181.873L327.101 29.2568L327.078 28.1887L327.016 27.1252L326.907 26.0661L326.76 25.0116L326.567 23.9705L326.338 22.934L326.063 21.911L325.751 20.897L325.398 19.9011L325.001 18.9186L324.068 16.9087L323.013 14.9844L321.841 13.1502L320.554 11.4061L319.162 9.76574L317.665 8.2335L316.074 6.80941L314.394 5.50701L312.622 4.32628L310.772 3.27624L309.933 2.83008L308.97 2.35239L307.988 1.92426L306.989 1.5457L305.98 1.21222L304.955 0.9283L303.924 0.698463L302.879 0.513692L301.828 0.383001L300.773 0.297376L299.712 0.265829L165.208 0.0630324L129.127 0.00895319L99.7829 -0.0270996H76.442L58.3837 0.0134598L44.8743 0.103592L35.1868 0.256816L28.5975 0.482146L24.3728 0.784088L21.7888 1.17616L20.1153 1.67189Z"
        fill="black" />
    </g>
  </mask>
  <g mask="url(#mask0_2173_355)">
    <rect width="327.5" height="450.66" fill="white" />
  </g>
  <rect x="277.5" y="400.66" width="50" height="50" rx="25" fill="currentColor" />
  <g clip-path="url(#clip1_2173_355)">
    <path
      d="M312.585 419.23H295.388L295.124 416.39C295.094 416.155 294.995 415.96 294.826 415.806C294.657 415.652 294.456 415.575 294.221 415.575H292.393C292.143 415.575 291.931 415.663 291.754 415.839C291.578 416.015 291.49 416.228 291.49 416.478C291.49 416.727 291.578 416.94 291.754 417.116C291.931 417.292 292.143 417.38 292.393 417.38H293.406C293.494 418.423 293.538 418.929 293.538 418.9L293.406 417.38C293.391 417.307 293.413 417.542 293.472 418.085L294.441 428.941C294.47 429.367 294.599 429.789 294.826 430.207C295.054 430.626 295.358 430.989 295.74 431.297C295.285 431.87 295.102 432.516 295.19 433.235C295.248 433.925 295.527 434.505 296.026 434.974C296.54 435.474 297.164 435.723 297.898 435.723C298.515 435.723 299.061 435.54 299.539 435.173C300.016 434.806 300.342 434.34 300.518 433.774C300.695 433.209 300.68 432.633 300.474 432.046H305.407C305.201 432.633 305.187 433.209 305.363 433.774C305.539 434.34 305.866 434.806 306.343 435.173C306.82 435.54 307.367 435.723 307.983 435.723C308.482 435.723 308.941 435.598 309.359 435.349C309.778 435.099 310.112 434.765 310.361 434.347C310.611 433.929 310.736 433.477 310.736 432.993C310.736 432.508 310.611 432.053 310.361 431.627C310.112 431.202 309.778 430.864 309.359 430.615C308.941 430.365 308.482 430.24 307.983 430.24H297.898C297.56 430.24 297.252 430.148 296.973 429.965C296.694 429.781 296.489 429.536 296.357 429.227L310.802 428.39C310.993 428.376 311.165 428.306 311.319 428.181C311.473 428.057 311.572 427.899 311.617 427.708L313.466 420.353C313.525 420.074 313.466 419.817 313.29 419.582C313.114 419.348 312.879 419.23 312.585 419.23ZM297.898 433.918C297.648 433.918 297.432 433.826 297.248 433.642C297.065 433.459 296.973 433.242 296.973 432.993C296.973 432.743 297.065 432.523 297.248 432.332C297.432 432.141 297.648 432.046 297.898 432.046C298.148 432.046 298.364 432.138 298.548 432.321C298.731 432.505 298.823 432.728 298.823 432.993C298.823 433.257 298.731 433.477 298.548 433.653C298.364 433.829 298.148 433.918 297.898 433.918ZM307.983 433.918C307.734 433.918 307.517 433.826 307.334 433.642C307.15 433.459 307.058 433.242 307.058 432.993C307.058 432.743 307.15 432.523 307.334 432.332C307.517 432.141 307.734 432.046 307.983 432.046C308.233 432.046 308.453 432.138 308.644 432.321C308.835 432.505 308.93 432.728 308.93 432.993C308.93 433.257 308.838 433.477 308.655 433.653C308.471 433.829 308.247 433.918 307.983 433.918ZM310.031 426.607L296.114 427.444L295.542 421.036H311.418L310.031 426.607Z"
      fill="#404A3D" />
  </g>
  <defs>
    <clipPath id="clip0_2173_355">
      <rect width="327.5" height="450.66" fill="white" />
    </clipPath>
    <clipPath id="clip1_2173_355">
      <rect width="22.02" height="24" fill="white" transform="matrix(1 0 0 -1 291.49 437.66)" />
    </clipPath>
  </defs>
</svg>