<svg width="447" height="273" viewBox="0 0 447 273" fill="none" xmlns="http://www.w3.org/2000/svg">
<g clip-path="url(#clip0_2090_98)">
<mask id="mask0_2090_98" style="mask-type:alpha" maskUnits="userSpaceOnUse" x="0" y="0" width="447" height="273">
<g clip-path="url(#clip1_2090_98)">
<path d="M30.0484 0H416.702L421.571 0.381066L426.195 1.48344L430.506 3.2445L434.442 5.60984L437.945 8.51682L440.947 11.9029L443.395 15.7108L445.218 19.878L446.357 24.3474L446.75 29.059V166.793L445.553 179.599L442.229 189.126L437.203 195.963L430.877 200.71L423.675 203.963L416.009 206.315L408.285 208.367L400.922 210.71L394.337 213.944L388.945 218.664L384.862 224.911L381.895 231.734L379.496 238.844L377.097 245.948L374.149 252.756L370.083 258.978L364.351 264.324L356.395 268.499L345.646 271.218L331.556 272.19H30.0484L25.1833 271.812L20.5639 270.712L16.2528 268.954L12.3214 266.594L8.81884 263.695L5.81669 260.317L3.36849 256.515L1.54576 252.353L0.402075 247.886L0 243.18V29.059L0.39314 24.3474L1.53235 19.878L3.35509 15.7108L5.80328 11.9029L8.80544 8.51682L12.308 5.60984L16.2438 3.2445L20.555 1.48344L25.1788 0.381066L30.0484 0Z" fill="black"/>
</g>
</mask>
<g mask="url(#mask0_2090_98)">
<rect width="446.75" height="272.19" fill="white"/>
</g>
<rect x="391.75" y="217.19" width="55" height="55" rx="27.5" fill="white"/>
<g clip-path="url(#clip2_2090_98)">
<path d="M415.261 238.119L414.858 238.535L415.391 238.99C416.266 239.718 417.263 240.273 418.381 240.654C418.805 240.801 419.174 240.897 419.486 240.94C419.824 240.992 420.313 241.022 420.955 241.031C421.405 241.031 421.83 241.022 422.229 241.005C422.645 240.988 422.926 240.962 423.074 240.927C423.186 240.901 423.251 240.905 423.269 240.94C423.286 240.975 423.236 241.066 423.119 241.213C423.002 241.36 422.792 241.599 422.489 241.928C422.194 242.231 421.761 242.673 421.189 243.254L419.07 245.386L414.52 249.936L414.884 250.326L415.274 250.69L419.824 246.14L421.956 244.021C422.536 243.449 422.978 243.016 423.282 242.721C423.611 242.418 423.849 242.207 423.997 242.09C424.144 241.973 424.235 241.924 424.27 241.941C424.304 241.958 424.309 242.023 424.283 242.136C424.248 242.283 424.222 242.565 424.205 242.981C424.187 243.38 424.179 243.804 424.179 244.255C424.187 244.896 424.218 245.386 424.27 245.724C424.313 246.036 424.408 246.404 424.556 246.829C424.937 247.947 425.492 248.944 426.22 249.819L426.675 250.352L427.091 249.949L427.52 249.546L427.195 249.195C427.021 249.03 426.744 248.64 426.363 248.025C425.808 247.106 425.461 246.118 425.323 245.061C425.184 244.012 425.255 242.974 425.537 241.947C425.819 240.92 426.298 239.978 426.974 239.12L427.507 238.444L427.156 238.067L426.792 237.703L426.441 237.976C426.042 238.279 425.613 238.572 425.154 238.853C424.694 239.135 424.313 239.337 424.01 239.458C423.542 239.64 422.946 239.781 422.222 239.88C421.498 239.98 420.903 240 420.435 239.939C419.629 239.844 418.812 239.616 417.984 239.256C417.156 238.897 416.5 238.483 416.015 238.015L415.664 237.69L415.261 238.119Z" fill="#404A3D"/>
</g>
</g>
<defs>
<clipPath id="clip0_2090_98">
<rect width="446.75" height="272.19" fill="white"/>
</clipPath>
<clipPath id="clip1_2090_98">
<rect width="446.75" height="272.19" fill="white"/>
</clipPath>
<clipPath id="clip2_2090_98">
<rect width="13" height="13" fill="white" transform="matrix(1 0 0 -1 414.52 250.69)"/>
</clipPath>
</defs>
</svg>
