<svg width="328" height="411" viewBox="0 0 328 411" fill="none" xmlns="http://www.w3.org/2000/svg">
<mask id="mask0_2108_199" style="mask-type:alpha" maskUnits="userSpaceOnUse" x="0" y="0" width="328" height="411">
<g clip-path="url(#clip0_2108_199)">
<path d="M41.4088 -0.484499H47.3726H48.9872H50.605H52.2196H53.8374H55.452H57.0699H58.6877H60.3056H61.9234H63.5413H65.2344H66.9276H68.6241H70.3172H72.0137H73.7101H75.4033H77.0998H78.7962H80.4927H83.3419H86.1879H89.0371H91.8831H94.7324H97.5783H100.424H103.27H106.12H108.966H112.254H115.542H118.83H122.118H125.406H128.694H131.979H135.267H138.552H141.837H145.004H148.171H151.337H154.504H157.671H160.838H164.005H167.172H170.339H173.509H174.852H176.195H177.541H178.887H180.23H181.576H182.922H184.271H185.617H186.963H188.555H190.143H191.735H193.323H194.915H196.503H198.095H199.683H201.275H202.863H208.686L212.921 -0.463974L217.142 -0.369559L221.334 -0.139679L225.474 0.270821L229.541 0.919411L233.517 1.86356L237.382 3.15253L241.118 4.83969L244.704 6.9825L248.12 9.63022L250.036 11.8305L251.749 14.1457L253.275 16.5554L254.647 19.0471L255.882 21.6127L257.009 24.2317L258.05 26.8959L259.029 29.5928L259.976 32.3062L260.909 35.0196L262.062 38.316L263.238 41.4193L264.485 44.3462L265.854 47.1007L267.39 49.6827L269.139 52.1005L271.15 54.3624L273.475 56.4683L276.158 58.4305L279.243 60.249L280.461 60.7046L281.686 61.1439L282.911 61.5667L284.142 61.9731L285.377 62.3672L286.615 62.7448L287.856 63.1184L289.104 63.4796L290.351 63.8409L291.606 64.1939L295.336 65.2694L298.978 66.386L302.511 67.5846L305.908 68.9311L309.15 70.4663L312.215 72.252L315.081 74.3373L317.721 76.7757L320.121 79.6205L322.253 82.9291L322.983 84.4849L323.638 86.0735L324.218 87.6827L324.719 89.3165L325.145 90.9708L325.492 92.6415L325.761 94.3287L325.951 96.0241L326.059 97.7317L326.088 99.4476V99.7432V100.043V100.347V100.654V100.966V101.283V101.599V101.915V102.231V102.547V105.917V109.534V110.527V111.525V112.518V113.511V114.505V115.502V116.496V117.489V118.483V119.476V127.998V130.802L326.091 133.609L326.095 136.417L326.101 139.225L326.105 142.033L326.114 144.841L326.124 147.653L326.134 150.46L326.144 153.268L326.157 156.08V156.811V157.542V158.272V159.003V159.73V160.46V161.195V161.926V162.661V163.395L326.16 167.94V172.484L326.164 177.032L326.17 181.576L326.177 186.121L326.183 190.669L326.193 195.213L326.203 199.762L326.216 204.306L326.229 208.854V209.909V210.96V212.011V213.066V214.117V215.168V216.223V217.273V218.328V219.379V222.023V226.255L326.232 230.487L326.239 234.724L326.245 238.956L326.255 243.192L326.268 247.425L326.281 251.661L326.298 255.897L326.317 260.134L326.337 264.37L326.353 268.725L326.367 273.077L326.38 277.428L326.389 281.779L326.399 286.131L326.406 290.482L326.416 294.833L326.419 299.185L326.422 303.536L326.426 307.883V310.326L326.429 312.768L326.432 315.206L326.435 317.649L326.439 320.091L326.445 322.53L326.452 324.972L326.458 327.411L326.468 329.853L326.475 332.296L326.488 334.377L326.494 336.458L326.501 338.539L326.504 340.62L326.507 342.698L326.504 344.779L326.501 346.86L326.494 348.941L326.488 351.018L326.475 353.1V354.159V355.222V356.281V357.34V358.399V359.458V360.522V361.581V362.64V363.703V364.865V366.022V367.176V368.329V369.479V370.628V371.773V372.923V374.072V375.226V375.554V375.887V376.219V376.547V376.884V377.217V377.553V377.89V378.23V378.567L326.419 381.051L326.183 383.509L325.764 385.94L325.174 388.325L324.411 390.66L323.478 392.935L322.381 395.143L321.12 397.274L319.702 399.318L318.13 401.268L315.828 403.177L313.473 404.79L311.062 406.124L308.593 407.204L306.052 408.049L303.435 408.69L300.743 409.145L297.966 409.437L295.097 409.584L292.133 409.617H288.635H287.682H286.729H285.78H284.826H283.873H282.924H281.971H281.018H280.065H279.115H268.818H266.804H264.787H262.773H260.759H258.741H256.727H254.713H252.695H250.681H248.667H225.421H220.977H216.533H212.085H207.641H203.194H198.746H194.299H189.851H185.401H180.95H176.889H172.828L168.764 409.621H164.703L160.638 409.63L156.577 409.634L152.513 409.638L148.452 409.646L144.388 409.654L140.327 409.662L136.155 409.675L131.979 409.683L127.807 409.691L123.631 409.699L119.459 409.704L115.283 409.708L111.111 409.712L106.938 409.716H102.763L98.5903 409.712H96.2454H93.9038H91.5589H89.2173H86.8724H84.5307H82.1858H79.8442H77.4993H75.1577H73.1698H71.1786H69.1874H67.1929H65.1984H63.2039H61.2062H59.2052H57.2041H55.2031H54.1846H53.1693H52.1541H51.1356H50.1203H49.1018H48.0865H47.068H46.0528H45.0375H43.9338H42.8302H41.7232H40.6195H39.5159H38.4089H37.3052H36.1983H35.0913H33.9844H30.7847L28.2957 409.63L25.8329 409.375L23.3996 408.952L21.0121 408.365L18.6738 407.614L16.3976 406.707L14.187 405.64L12.055 404.424L10.0114 403.053L8.05949 401.539L5.85869 399.018L4.06727 396.424L2.64264 393.76L1.54224 391.022L0.726766 388.202L0.153641 385.303L-0.213159 382.323L-0.422759 379.253L-0.507909 376.096L-0.517734 372.845V372.389V371.938V371.482V371.03V370.575V370.123V369.667V369.216V368.76V368.309V367.069V365.829V364.59V363.35V362.106V360.866V359.627V358.387V357.147V355.907V354.565V353.227V351.889V350.546V349.208V347.87V346.528V345.189V343.847V342.509V339.886V337.263V334.639V332.016V329.393V326.77V324.147V321.52V318.897V316.27V314.135V311.996V309.862V307.727V305.597V303.466V301.336V299.205V297.079V294.952V285.691V279.908V274.124V268.34V262.556V256.772V250.988V245.204V239.42V233.636V227.852V222.565V217.278L-0.521009 211.986L-0.524284 206.699L-0.530834 201.412L-0.534109 196.124L-0.540659 190.833L-0.547209 185.546L-0.557034 180.259L-0.566859 174.971L-0.576684 169.528L-0.586509 164.089L-0.593059 158.654L-0.596334 153.219V147.784V142.353L-0.593059 136.922L-0.586509 131.491L-0.576684 126.064L-0.566859 120.642V117.592V114.542V111.492V108.442V105.396V102.346V99.2957V96.2457V93.1957V90.1498V87.5513V84.957V82.3626V79.7682V77.1739V74.5754V71.9811V69.3867V66.7882V64.1939V62.868V61.5462V60.2202V58.8984V57.5766V56.2507V54.9289V53.603V52.2812V50.9594V49.7443V48.5333V47.3182V46.1073V44.8922V43.6771V42.462V41.251V40.036V38.8209V38.3816V37.9465V37.5073V37.0721V36.6329V36.1978V35.7585V35.3234V34.8842V34.4491L-0.599609 31.4647L-0.501359 28.5625L-0.249184 25.7341L0.179841 22.9797L0.808641 20.2909L1.65687 17.6678L2.74744 15.1104L4.10002 12.6105L5.74079 10.168L7.69269 7.77476L8.17412 7.33553L8.66864 6.90861L9.16972 6.494L9.68062 6.08761L10.1981 5.69353L10.7253 5.31176L11.2624 4.93821L11.8061 4.57697L12.3596 4.22394L12.9196 3.88733L14.5473 2.81592L17.0494 1.6501L19.6202 0.775736L22.2533 0.147671L24.9323 -0.266934L27.6505 -0.505024L30.395 -0.615859L33.1525 -0.628174L35.9166 -0.583019L38.6709 -0.525549L41.4088 -0.484499Z" fill="black"/>
</g>
</mask>
<g mask="url(#mask0_2108_199)">
<rect width="327.5" height="410.5" fill="white"/>
</g>
<rect x="277.5" width="50" height="50" rx="25" fill="#EDDD5E"/>
<g clip-path="url(#clip1_2108_199)">
<g clip-path="url(#clip2_2108_199)">
<path d="M295.412 16.528L294.916 17.04L295.572 17.6C296.649 18.496 297.876 19.1787 299.252 19.648C299.775 19.8293 300.228 19.9467 300.612 20C301.028 20.064 301.631 20.1013 302.42 20.112C302.975 20.112 303.497 20.1013 303.988 20.08C304.5 20.0587 304.847 20.0267 305.028 19.984C305.167 19.952 305.247 19.9573 305.268 20C305.289 20.0427 305.228 20.1547 305.084 20.336C304.94 20.5173 304.681 20.8107 304.308 21.216C303.945 21.5893 303.412 22.1333 302.708 22.848L300.1 25.472L294.5 31.072L294.948 31.552L295.428 32L301.028 26.4L303.652 23.792C304.367 23.088 304.911 22.5547 305.284 22.192C305.689 21.8187 305.983 21.56 306.164 21.416C306.345 21.272 306.457 21.2107 306.5 21.232C306.543 21.2533 306.548 21.3333 306.516 21.472C306.473 21.6533 306.441 22 306.42 22.512C306.399 23.0027 306.388 23.5253 306.388 24.08C306.399 24.8693 306.436 25.472 306.5 25.888C306.553 26.272 306.671 26.7253 306.852 27.248C307.321 28.624 308.004 29.8507 308.9 30.928L309.46 31.584L309.972 31.088L310.5 30.592L310.1 30.16C309.887 29.9573 309.545 29.4773 309.076 28.72C308.393 27.5893 307.967 26.3733 307.796 25.072C307.625 23.7813 307.713 22.504 308.06 21.24C308.407 19.976 308.996 18.816 309.828 17.76L310.484 16.928L310.052 16.464L309.604 16.016L309.172 16.352C308.681 16.7253 308.153 17.0853 307.588 17.432C307.023 17.7787 306.553 18.0267 306.18 18.176C305.604 18.4 304.871 18.5733 303.98 18.696C303.089 18.8187 302.356 18.8427 301.78 18.768C300.788 18.6507 299.783 18.3707 298.764 17.928C297.745 17.4853 296.937 16.976 296.34 16.4L295.908 16L295.412 16.528Z" fill="#404A3D"/>
</g>
<g clip-path="url(#clip3_2108_199)">
<path d="M288.247 37.0972L288.118 37.2303L288.288 37.3759C288.569 37.6088 288.888 37.7863 289.245 37.9084C289.381 37.9555 289.499 37.986 289.599 37.9999C289.707 38.0165 289.864 38.0262 290.069 38.029C290.213 38.029 290.349 38.0262 290.477 38.0207C290.61 38.0151 290.7 38.0068 290.747 37.9957C290.783 37.9874 290.804 37.9888 290.809 37.9999C290.815 38.011 290.799 38.0401 290.762 38.0872C290.724 38.1344 290.657 38.2106 290.56 38.316C290.466 38.4131 290.327 38.5545 290.144 38.7404L289.466 39.4226L288.01 40.8786L288.126 41.0034L288.251 41.1199L289.707 39.6639L290.389 38.9858C290.575 38.8028 290.717 38.6641 290.814 38.5698C290.919 38.4727 290.995 38.4055 291.042 38.368C291.09 38.3306 291.119 38.3146 291.13 38.3202C291.141 38.3257 291.142 38.3465 291.134 38.3826C291.123 38.4297 291.115 38.5199 291.109 38.653C291.103 38.7806 291.101 38.9165 291.101 39.0607C291.103 39.2659 291.113 39.4226 291.13 39.5308C291.144 39.6306 291.174 39.7485 291.221 39.8844C291.343 40.2421 291.521 40.561 291.754 40.8412L291.899 41.0117L292.032 40.8828L292.17 40.7538L292.066 40.6415C292.01 40.5888 291.922 40.464 291.8 40.2671C291.622 39.9731 291.511 39.6569 291.467 39.3186C291.422 38.983 291.445 38.6509 291.535 38.3223C291.625 37.9936 291.779 37.692 291.995 37.4175L292.166 37.2012L292.053 37.0805L291.937 36.964L291.824 37.0514C291.697 37.1485 291.56 37.2421 291.413 37.3322C291.266 37.4223 291.144 37.4868 291.047 37.5256C290.897 37.5839 290.706 37.6289 290.475 37.6608C290.243 37.6927 290.052 37.699 289.903 37.6796C289.645 37.649 289.383 37.5762 289.118 37.4612C288.854 37.3461 288.643 37.2136 288.488 37.0639L288.376 36.9599L288.247 37.0972Z" fill="#404A3D"/>
</g>
</g>
<defs>
<clipPath id="clip0_2108_199">
<rect width="327.5" height="410.5" fill="white"/>
</clipPath>
<clipPath id="clip1_2108_199">
<rect width="22.38" height="24" fill="white" transform="translate(291.311 13)"/>
</clipPath>
<clipPath id="clip2_2108_199">
<rect width="16" height="16" fill="white" transform="matrix(1 0 0 -1 294.5 32)"/>
</clipPath>
<clipPath id="clip3_2108_199">
<rect width="4.16" height="6.24" fill="white" transform="matrix(1 0 0 -1 288.01 42.1599)"/>
</clipPath>
</defs>
</svg>
