<svg width="447" height="527" viewBox="0 0 447 527" fill="none" xmlns="http://www.w3.org/2000/svg">
<path d="M20.332 1.41021L17.4421 2.46791L14.713 3.78346L12.1671 5.34107L9.82209 7.1197L7.68705 9.10881L5.78875 11.2926L4.13164 13.6448L2.74252 16.1549L1.63481 18.8018L0.81742 21.575L0.59409 24.606L0.406493 31.8205L0.250162 43.4341L0.125097 59.6575L0.0357652 80.7116L-0.0267672 106.802L-0.0580334 138.143L-0.0625 174.952L-0.040167 217.439L0.0089656 265.82L0.303761 499.367L0.335027 500.53L0.424359 501.693L0.567291 502.845L0.768288 503.987L1.02735 505.119L1.34448 506.239L1.71074 507.35L2.13507 508.439L2.61299 509.518L3.14452 510.57L4.1361 512.296L5.25275 513.943L6.48554 515.517L7.82552 516.995L9.27269 518.39L10.8226 519.69L12.4663 520.884L14.1949 521.979L16.0128 522.963L17.9066 523.831L18.8357 524.199L19.7737 524.531L20.7295 524.82L21.6943 525.078L22.6725 525.294L23.6596 525.473L24.6512 525.615L25.6517 525.715L26.6567 525.778L27.6662 525.799L179.79 526.073L205.611 526.094L229.288 526.083L250.804 526.036L270.136 525.962L287.274 525.873L302.188 525.767L314.869 525.662L325.298 525.562L333.454 525.473L339.319 525.399L340.851 525.367L342.374 525.283L343.897 525.152L345.411 524.968L346.916 524.741L348.413 524.457L349.9 524.131L351.37 523.757L352.83 523.331L354.273 522.857L355.733 522.331L357.163 521.747L358.556 521.1L359.919 520.4L361.245 519.642L362.532 518.827L363.778 517.964L364.984 517.043L366.145 516.074L367.257 515.054L368.794 513.501L370.107 512.086L371.246 510.696L372.273 509.239L373.234 507.608L374.185 505.703L375.185 503.424L376.28 500.661L377.53 497.32L378.987 493.3L381.104 487.764L383.181 483.075L385.32 479.134L387.638 475.829L390.26 473.061L393.289 470.725L396.849 468.715L401.052 466.931L406.014 465.263L411.847 463.61L418.333 461.753L423.938 459.832L428.745 457.796L432.814 455.58L436.217 453.128L439.022 450.381L441.309 447.276L443.14 443.756L444.588 439.757L445.718 435.226L445.945 432.363L446.133 426.091L446.289 416.166L446.41 402.369L446.504 384.462L446.566 362.208L446.598 335.386L446.602 303.76L446.575 267.093L446.53 225.159L446.227 25.7321L446.2 24.7375L446.124 23.7482L446.003 22.7642L445.834 21.7854L445.615 20.8172L445.347 19.8595L445.034 18.9175L444.677 17.9809L444.27 17.0653L443.819 16.1602L443.395 15.3656L442.399 13.6448L441.287 11.9925L440.054 10.4244L438.714 8.94042L437.267 7.5512L435.717 6.25143L434.073 5.05691L432.345 3.96238L430.527 2.97835L428.633 2.11008L427.704 1.74173L426.761 1.41021L425.805 1.11553L424.841 0.862941L423.863 0.647191L422.875 0.468276L421.879 0.331459L420.879 0.231477L419.874 0.168331L418.864 0.147282L224.786 -5.96717e-05L173.224 -0.0474195L131.349 -0.0737305H98.1268L72.5153 -0.0368951L53.4697 0.0420379L39.9538 0.178855L30.9223 0.373557L25.3346 0.636667L22.1544 0.978709L20.332 1.41021Z" fill="white"/>
</svg>
