<svg width="67" height="67" viewBox="0 0 67 67" fill="none" xmlns="http://www.w3.org/2000/svg">
<path d="M58.5667 66.2666H48.3C47.9889 66.2666 47.7556 66.1888 47.6 66.0333C47.4444 65.8777 47.3667 65.6444 47.3667 65.3333V12.3666V11.8999L52.5 0.466599C52.8111 0.155487 53.1611 -6.86646e-05 53.55 -6.86646e-05C53.9389 -6.86646e-05 54.2111 0.155487 54.3667 0.466599L59.5 11.8999L59.7333 12.3666V65.3333C59.7333 65.6444 59.6167 65.8777 59.3833 66.0333C59.15 66.1888 58.8778 66.2666 58.5667 66.2666ZM49.2333 64.3999H57.6333V12.5999L53.4333 3.2666L49.2333 12.5999V64.3999ZM38.2667 66.2666H28C27.6889 66.2666 27.4556 66.1888 27.3 66.0333C27.1444 65.8777 27.0667 65.6444 27.0667 65.3333V12.3666V11.8999L32.2 0.466599C32.3556 0.155487 32.6667 -6.86646e-05 33.1333 -6.86646e-05C33.6 -6.86646e-05 33.9111 0.155487 34.0667 0.466599L39.2 11.8999V12.3666V65.3333C39.2 65.6444 39.1222 65.8777 38.9667 66.0333C38.8111 66.1888 38.5778 66.2666 38.2667 66.2666ZM28.9333 64.3999H37.3333V12.5999L33.1333 3.2666L28.9333 12.5999V64.3999ZM17.9667 66.2666H7.7C7.38889 66.2666 7.11667 66.1888 6.88333 66.0333C6.65 65.8777 6.53333 65.6444 6.53333 65.3333V12.3666L6.76667 11.8999L11.9 0.466599C12.0556 0.155487 12.3278 -6.86646e-05 12.7167 -6.86646e-05C13.1056 -6.86646e-05 13.4556 0.155487 13.7667 0.466599L18.9 11.8999V12.3666V65.3333C18.9 65.6444 18.8222 65.8777 18.6667 66.0333C18.5111 66.1888 18.2778 66.2666 17.9667 66.2666ZM8.63333 64.3999H17.0333V12.5999L12.8333 3.2666L8.63333 12.5999V64.3999ZM48.3 24.7333H38.2667C38.1111 24.7333 37.9167 24.6166 37.6833 24.3833C37.45 24.1499 37.3333 23.9166 37.3333 23.6833C37.3333 23.4499 37.45 23.2166 37.6833 22.9833C37.9167 22.7499 38.1111 22.6333 38.2667 22.6333H48.3C48.6111 22.6333 48.8444 22.7499 49 22.9833C49.1556 23.2166 49.2333 23.4499 49.2333 23.6833C49.2333 23.9166 49.1556 24.1499 49 24.3833C48.8444 24.6166 48.6111 24.7333 48.3 24.7333ZM48.3 18.8999H38.2667C38.1111 18.8999 37.9167 18.8222 37.6833 18.6666C37.45 18.511 37.3333 18.2777 37.3333 17.9666C37.3333 17.6555 37.45 17.4222 37.6833 17.2666C37.9167 17.111 38.1111 17.0333 38.2667 17.0333H48.3C48.6111 17.0333 48.8444 17.111 49 17.2666C49.1556 17.4222 49.2333 17.6555 49.2333 17.9666C49.2333 18.2777 49.1556 18.511 49 18.6666C48.8444 18.8222 48.6111 18.8999 48.3 18.8999ZM7.7 24.7333H1.86667C1.4 24.7333 0.972222 24.5388 0.583333 24.1499C0.194444 23.761 0 23.2555 0 22.6333V18.8999C0 18.4333 0.194444 18.0055 0.583333 17.6166C0.972222 17.2277 1.4 17.0333 1.86667 17.0333H7.7C7.85556 17.0333 8.05 17.111 8.28333 17.2666C8.51667 17.4222 8.63333 17.6555 8.63333 17.9666C8.63333 18.2777 8.51667 18.511 8.28333 18.6666C8.05 18.8222 7.85556 18.8999 7.7 18.8999H1.86667V22.6333H7.7C7.85556 22.6333 8.05 22.7499 8.28333 22.9833C8.51667 23.2166 8.63333 23.4499 8.63333 23.6833C8.63333 23.9166 8.51667 24.1499 8.28333 24.3833C8.05 24.6166 7.85556 24.7333 7.7 24.7333ZM28 24.7333H17.9667C17.6556 24.7333 17.4222 24.6166 17.2667 24.3833C17.1111 24.1499 17.0333 23.9166 17.0333 23.6833C17.0333 23.4499 17.1111 23.2166 17.2667 22.9833C17.4222 22.7499 17.6556 22.6333 17.9667 22.6333H28C28.1556 22.6333 28.35 22.7499 28.5833 22.9833C28.8167 23.2166 28.9333 23.4499 28.9333 23.6833C28.9333 23.9166 28.8167 24.1499 28.5833 24.3833C28.35 24.6166 28.1556 24.7333 28 24.7333ZM28 18.8999H17.9667C17.6556 18.8999 17.4222 18.8222 17.2667 18.6666C17.1111 18.511 17.0333 18.2777 17.0333 17.9666C17.0333 17.6555 17.1111 17.4222 17.2667 17.2666C17.4222 17.111 17.6556 17.0333 17.9667 17.0333H28C28.1556 17.0333 28.35 17.111 28.5833 17.2666C28.8167 17.4222 28.9333 17.6555 28.9333 17.9666C28.9333 18.2777 28.8167 18.511 28.5833 18.6666C28.35 18.8222 28.1556 18.8999 28 18.8999ZM64.4 24.7333H58.5667C58.4111 24.7333 58.2167 24.6166 57.9833 24.3833C57.75 24.1499 57.6333 23.9166 57.6333 23.6833C57.6333 23.4499 57.75 23.2166 57.9833 22.9833C58.2167 22.7499 58.4111 22.6333 58.5667 22.6333H64.4V18.8999H58.5667C58.4111 18.8999 58.2167 18.8222 57.9833 18.6666C57.75 18.511 57.6333 18.2777 57.6333 17.9666C57.6333 17.6555 57.75 17.4222 57.9833 17.2666C58.2167 17.111 58.4111 17.0333 58.5667 17.0333H64.4C64.8667 17.0333 65.2944 17.2277 65.6833 17.6166C66.0722 18.0055 66.2667 18.4333 66.2667 18.8999V22.6333C66.2667 23.2555 66.0722 23.761 65.6833 24.1499C65.2944 24.5388 64.8667 24.7333 64.4 24.7333ZM48.3 40.5999H38.2667C38.1111 40.5999 37.9167 40.5222 37.6833 40.3666C37.45 40.211 37.3333 40.0166 37.3333 39.7833C37.3333 39.5499 37.45 39.3166 37.6833 39.0833C37.9167 38.8499 38.1111 38.7333 38.2667 38.7333H48.3C48.6111 38.7333 48.8444 38.8499 49 39.0833C49.1556 39.3166 49.2333 39.5499 49.2333 39.7833C49.2333 40.0166 49.1556 40.211 49 40.3666C48.8444 40.5222 48.6111 40.5999 48.3 40.5999ZM48.3 34.9999H38.2667C38.1111 34.9999 37.9167 34.9222 37.6833 34.7666C37.45 34.611 37.3333 34.3777 37.3333 34.0666C37.3333 33.7555 37.45 33.5222 37.6833 33.3666C37.9167 33.211 38.1111 33.1333 38.2667 33.1333H48.3C48.6111 33.1333 48.8444 33.211 49 33.3666C49.1556 33.5222 49.2333 33.7555 49.2333 34.0666C49.2333 34.3777 49.1556 34.611 49 34.7666C48.8444 34.9222 48.6111 34.9999 48.3 34.9999ZM7.7 40.5999H1.86667C1.4 40.5999 0.972222 40.4444 0.583333 40.1333C0.194444 39.8222 0 39.3555 0 38.7333V34.9999C0 34.5333 0.194444 34.1055 0.583333 33.7166C0.972222 33.3277 1.4 33.1333 1.86667 33.1333H7.7C7.85556 33.1333 8.05 33.211 8.28333 33.3666C8.51667 33.5222 8.63333 33.7555 8.63333 34.0666C8.63333 34.3777 8.51667 34.611 8.28333 34.7666C8.05 34.9222 7.85556 34.9999 7.7 34.9999H1.86667V38.7333H7.7C7.85556 38.7333 8.05 38.8499 8.28333 39.0833C8.51667 39.3166 8.63333 39.5499 8.63333 39.7833C8.63333 40.0166 8.51667 40.211 8.28333 40.3666C8.05 40.5222 7.85556 40.5999 7.7 40.5999ZM28 40.5999H17.9667C17.6556 40.5999 17.4222 40.5222 17.2667 40.3666C17.1111 40.211 17.0333 40.0166 17.0333 39.7833C17.0333 39.5499 17.1111 39.3166 17.2667 39.0833C17.4222 38.8499 17.6556 38.7333 17.9667 38.7333H28C28.1556 38.7333 28.35 38.8499 28.5833 39.0833C28.8167 39.3166 28.9333 39.5499 28.9333 39.7833C28.9333 40.0166 28.8167 40.211 28.5833 40.3666C28.35 40.5222 28.1556 40.5999 28 40.5999ZM28 34.9999H17.9667C17.6556 34.9999 17.4222 34.9222 17.2667 34.7666C17.1111 34.611 17.0333 34.3777 17.0333 34.0666C17.0333 33.7555 17.1111 33.5222 17.2667 33.3666C17.4222 33.211 17.6556 33.1333 17.9667 33.1333H28C28.1556 33.1333 28.35 33.211 28.5833 33.3666C28.8167 33.5222 28.9333 33.7555 28.9333 34.0666C28.9333 34.3777 28.8167 34.611 28.5833 34.7666C28.35 34.9222 28.1556 34.9999 28 34.9999ZM64.4 40.5999H58.5667C58.4111 40.5999 58.2167 40.5222 57.9833 40.3666C57.75 40.211 57.6333 40.0166 57.6333 39.7833C57.6333 39.5499 57.75 39.3166 57.9833 39.0833C58.2167 38.8499 58.4111 38.7333 58.5667 38.7333H64.4V34.9999H58.5667C58.4111 34.9999 58.2167 34.9222 57.9833 34.7666C57.75 34.611 57.6333 34.3777 57.6333 34.0666C57.6333 33.7555 57.75 33.5222 57.9833 33.3666C58.2167 33.211 58.4111 33.1333 58.5667 33.1333H64.4C64.8667 33.1333 65.2944 33.3277 65.6833 33.7166C66.0722 34.1055 66.2667 34.5333 66.2667 34.9999V38.7333C66.2667 39.3555 66.0722 39.8222 65.6833 40.1333C65.2944 40.4444 64.8667 40.5999 64.4 40.5999ZM48.3 56.6999H38.2667C38.1111 56.6999 37.9167 56.6222 37.6833 56.4666C37.45 56.311 37.3333 56.1166 37.3333 55.8833C37.3333 55.6499 37.45 55.4166 37.6833 55.1833C37.9167 54.9499 38.1111 54.8333 38.2667 54.8333H48.3C48.6111 54.8333 48.8444 54.9499 49 55.1833C49.1556 55.4166 49.2333 55.6499 49.2333 55.8833C49.2333 56.1166 49.1556 56.311 49 56.4666C48.8444 56.6222 48.6111 56.6999 48.3 56.6999ZM48.3 51.0999H38.2667C38.1111 51.0999 37.9167 51.0222 37.6833 50.8666C37.45 50.711 37.3333 50.4777 37.3333 50.1666C37.3333 49.8555 37.45 49.6222 37.6833 49.4666C37.9167 49.311 38.1111 49.2333 38.2667 49.2333H48.3C48.6111 49.2333 48.8444 49.311 49 49.4666C49.1556 49.6222 49.2333 49.8555 49.2333 50.1666C49.2333 50.4777 49.1556 50.711 49 50.8666C48.8444 51.0222 48.6111 51.0999 48.3 51.0999ZM7.7 56.6999H1.86667C1.4 56.6999 0.972222 56.5444 0.583333 56.2333C0.194444 55.9222 0 55.4555 0 54.8333V51.0999C0 50.6333 0.194444 50.2055 0.583333 49.8166C0.972222 49.4277 1.4 49.2333 1.86667 49.2333H7.7C7.85556 49.2333 8.05 49.311 8.28333 49.4666C8.51667 49.6222 8.63333 49.8555 8.63333 50.1666C8.63333 50.4777 8.51667 50.711 8.28333 50.8666C8.05 51.0222 7.85556 51.0999 7.7 51.0999H1.86667V54.8333H7.7C7.85556 54.8333 8.05 54.9499 8.28333 55.1833C8.51667 55.4166 8.63333 55.6499 8.63333 55.8833C8.63333 56.1166 8.51667 56.311 8.28333 56.4666C8.05 56.6222 7.85556 56.6999 7.7 56.6999ZM28 56.6999H17.9667C17.6556 56.6999 17.4222 56.6222 17.2667 56.4666C17.1111 56.311 17.0333 56.1166 17.0333 55.8833C17.0333 55.6499 17.1111 55.4166 17.2667 55.1833C17.4222 54.9499 17.6556 54.8333 17.9667 54.8333H28C28.1556 54.8333 28.35 54.9499 28.5833 55.1833C28.8167 55.4166 28.9333 55.6499 28.9333 55.8833C28.9333 56.1166 28.8167 56.311 28.5833 56.4666C28.35 56.6222 28.1556 56.6999 28 56.6999ZM28 51.0999H17.9667C17.6556 51.0999 17.4222 51.0222 17.2667 50.8666C17.1111 50.711 17.0333 50.4777 17.0333 50.1666C17.0333 49.8555 17.1111 49.6222 17.2667 49.4666C17.4222 49.311 17.6556 49.2333 17.9667 49.2333H28C28.1556 49.2333 28.35 49.311 28.5833 49.4666C28.8167 49.6222 28.9333 49.8555 28.9333 50.1666C28.9333 50.4777 28.8167 50.711 28.5833 50.8666C28.35 51.0222 28.1556 51.0999 28 51.0999ZM64.4 56.6999H58.5667C58.4111 56.6999 58.2167 56.6222 57.9833 56.4666C57.75 56.311 57.6333 56.1166 57.6333 55.8833C57.6333 55.6499 57.75 55.4166 57.9833 55.1833C58.2167 54.9499 58.4111 54.8333 58.5667 54.8333H64.4V51.0999H58.5667C58.4111 51.0999 58.2167 51.0222 57.9833 50.8666C57.75 50.711 57.6333 50.4777 57.6333 50.1666C57.6333 49.8555 57.75 49.6222 57.9833 49.4666C58.2167 49.311 58.4111 49.2333 58.5667 49.2333H64.4C64.8667 49.2333 65.2944 49.4277 65.6833 49.8166C66.0722 50.2055 66.2667 50.6333 66.2667 51.0999V54.8333C66.2667 55.4555 66.0722 55.9222 65.6833 56.2333C65.2944 56.5444 64.8667 56.6999 64.4 56.6999Z" fill="#5B8C51"/>
</svg>
